<?xml version="1.0" encoding="UTF-8" standalone="no"?>
<!-- Created with Inkscape (http://www.inkscape.org/) -->

<svg
   xmlns:dc="http://purl.org/dc/elements/1.1/"
   xmlns:cc="http://creativecommons.org/ns#"
   xmlns:rdf="http://www.w3.org/1999/02/22-rdf-syntax-ns#"
   xmlns:svg="http://www.w3.org/2000/svg"
   xmlns="http://www.w3.org/2000/svg"
   xmlns:sodipodi="http://sodipodi.sourceforge.net/DTD/sodipodi-0.dtd"
   xmlns:inkscape="http://www.inkscape.org/namespaces/inkscape"
   width="307.89941"
   height="123.09445"
   id="svg2"
   version="1.1"
   inkscape:version="0.48.2 r9819"
   sodipodi:docname="odc-logo-variants.svg">
  <defs
     id="defs4" />
  <sodipodi:namedview
     id="base"
     pagecolor="#ffffff"
     bordercolor="#666666"
     borderopacity="1.0"
     inkscape:pageopacity="0.0"
     inkscape:pageshadow="2"
     inkscape:zoom="0.68568627"
     inkscape:cx="339.49141"
     inkscape:cy="-172.1913"
     inkscape:document-units="px"
     inkscape:current-layer="layer1"
     showgrid="false"
     inkscape:window-width="1238"
     inkscape:window-height="756"
     inkscape:window-x="42"
     inkscape:window-y="0"
     inkscape:window-maximized="1"
     showguides="true"
     inkscape:guide-bbox="true"
     fit-margin-top="10"
     fit-margin-left="10"
     fit-margin-right="10"
     fit-margin-bottom="10" />
  <metadata
     id="metadata7">
    <rdf:RDF>
      <cc:Work
         rdf:about="">
        <dc:format>image/svg+xml</dc:format>
        <dc:type
           rdf:resource="http://purl.org/dc/dcmitype/StillImage" />
        <dc:title></dc:title>
      </cc:Work>
    </rdf:RDF>
  </metadata>
  <g
     inkscape:label="Ebene 1"
     inkscape:groupmode="layer"
     id="layer1"
     transform="translate(-25.92467,-204.0403)">
    <path
       inkscape:connector-curvature="0"
       id="path3797"
       d="m 87.27127,214.0403 c -28.35613,0 -51.3466,23.07994 -51.3466,51.54645 0,28.4665 22.99047,51.54646 51.3466,51.54646 28.35614,0 51.34661,-23.07996 51.34661,-51.54646 0,-28.46651 -22.99047,-51.54645 -51.34661,-51.54645 z m 61.61592,0.018 0,103.07492 25.66435,0 c 28.35613,0 51.3466,-23.07994 51.3466,-51.54647 0,-28.46649 -22.99047,-51.52845 -51.3466,-51.52845 l -25.66435,0 z m 137.39026,0 c -12.72633,0.30467 -25.36129,5.34518 -35.0734,15.09509 -20.05083,20.12886 -20.05083,52.75587 0,72.88472 20.0508,20.12886 52.56922,20.12886 72.62004,0 l -36.31002,-36.45137 36.31002,-36.43335 c -10.3387,-10.37895 -23.99926,-15.41945 -37.54664,-15.0951 z"
       style="fill:#000000;fill-opacity:1;fill-rule:nonzero;stroke:none" />
  </g>
</svg>
