<?xml version="1.0" encoding="UTF-8" standalone="no"?>
<!-- Created with Inkscape (http://www.inkscape.org/) -->

<svg
   xmlns:dc="http://purl.org/dc/elements/1.1/"
   xmlns:cc="http://creativecommons.org/ns#"
   xmlns:rdf="http://www.w3.org/1999/02/22-rdf-syntax-ns#"
   xmlns:svg="http://www.w3.org/2000/svg"
   xmlns="http://www.w3.org/2000/svg"
   xmlns:sodipodi="http://sodipodi.sourceforge.net/DTD/sodipodi-0.dtd"
   xmlns:inkscape="http://www.inkscape.org/namespaces/inkscape"
   width="671.6875"
   height="557.08472"
   id="svg2"
   version="1.1"
   inkscape:version="0.48.2 r9819"
   sodipodi:docname="odc-logo-final.svg">
  <defs
     id="defs4" />
  <sodipodi:namedview
     id="base"
     pagecolor="#ffffff"
     bordercolor="#666666"
     borderopacity="1.0"
     inkscape:pageopacity="0.0"
     inkscape:pageshadow="2"
     inkscape:zoom="0.68568627"
     inkscape:cx="350.41608"
     inkscape:cy="261.79897"
     inkscape:document-units="px"
     inkscape:current-layer="layer1"
     showgrid="false"
     inkscape:window-width="1238"
     inkscape:window-height="756"
     inkscape:window-x="42"
     inkscape:window-y="0"
     inkscape:window-maximized="1"
     showguides="true"
     inkscape:guide-bbox="true"
     fit-margin-top="10"
     fit-margin-left="10"
     fit-margin-right="10"
     fit-margin-bottom="10" />
  <metadata
     id="metadata7">
    <rdf:RDF>
      <cc:Work
         rdf:about="">
        <dc:format>image/svg+xml</dc:format>
        <dc:type
           rdf:resource="http://purl.org/dc/dcmitype/StillImage" />
        <dc:title></dc:title>
      </cc:Work>
    </rdf:RDF>
  </metadata>
  <g
     inkscape:label="Ebene 1"
     inkscape:groupmode="layer"
     id="layer1"
     transform="translate(-15,-204.0403)">
    <path
       style="fill:#454545;fill-opacity:1;fill-rule:nonzero;stroke:none"
       d="m 429.22049,214.0403 c -28.35613,0 -51.3466,23.07994 -51.3466,51.54645 0,28.4665 22.99047,51.54646 51.3466,51.54646 28.35613,0 51.3466,-23.07996 51.3466,-51.54646 0,-28.46651 -22.99047,-51.54645 -51.3466,-51.54645 z m 61.61592,0.018 0,103.07492 25.66434,0 c 28.35613,0 51.3466,-23.07994 51.3466,-51.54647 0,-28.46649 -22.99047,-51.52845 -51.3466,-51.52845 l -25.66434,0 z m 137.39029,0 c -12.72637,0.30467 -25.36133,5.34518 -35.07344,15.09509 -20.05082,20.12886 -20.05082,52.75587 0,72.88472 20.0508,20.12886 52.56924,20.12886 72.62004,0 l -36.31,-36.45137 36.31,-36.43335 c -10.3387,-10.37895 -23.9992,-15.41945 -37.5466,-15.0951 z"
       id="path3838"
       inkscape:connector-curvature="0" />
    <path
       style="font-size:medium;font-style:normal;font-variant:normal;font-weight:normal;font-stretch:normal;text-indent:0;text-align:start;text-decoration:none;line-height:normal;letter-spacing:normal;word-spacing:normal;text-transform:none;direction:ltr;block-progression:tb;writing-mode:lr-tb;text-anchor:start;baseline-shift:baseline;color:#000000;fill:#454545;fill-opacity:1;stroke:none;stroke-width:2;marker:none;visibility:visible;display:inline;overflow:visible;enable-background:accumulate;font-family:Sans;-inkscape-font-specification:Sans"
       d="m 429.21875,499.6875 c -28.89875,0 -52.34375,23.55758 -52.34375,52.5625 0,29.00491 23.445,52.53125 52.34375,52.53125 28.89875,0 52.34375,-23.52634 52.34375,-52.53125 0,-29.00492 -23.445,-52.5625 -52.34375,-52.5625 z m 60.625,0.0312 0,1 0,103.0625 0,1 1,0 25.65625,0 c 28.89875,0 52.34375,-23.5263 52.34375,-52.53125 0,-29.00492 -23.44542,-52.53125 -52.34375,-52.53125 l -25.65625,0 -1,0 z m 138.34375,0 -0.9688,0.0312 0,0.0937 c -12.64234,0.53947 -25.13324,5.59573 -34.7812,15.28125 -20.43213,20.51166 -20.43213,53.7696 0,74.28125 20.43232,20.51186 53.5989,20.51186 74.0312,0 l 0.7188,-0.7186 -0.7188,-0.6875 -35.5937,-35.75 35.5937,-35.71875 0.7188,-0.71875 -0.7188,-0.6875 c -10.5352,-10.5763 -24.4699,-15.73691 -38.2812,-15.40625 z m -198.96875,1.9688 c 27.81351,0 50.34375,22.63442 50.34375,50.5625 0,27.92807 -22.53024,50.53125 -50.34375,50.53125 -27.81351,0 -50.34375,-22.60318 -50.34375,-50.53125 0,-27.92808 22.53024,-50.5625 50.34375,-50.5625 z m 62.625,0.0312 24.65625,0 c 27.81393,0 50.34375,22.60317 50.34375,50.53125 0,27.92811 -22.53024,50.53125 -50.34375,50.53125 l -24.65625,0 0,-101.0625 z m 136.40625,0 c 12.9803,-0.31076 26.04,4.4409 36.0937,14.15625 l -35.5937,35.65625 -0.6875,0.71875 0.6875,0.71875 35.5625,35.6875 C 644.5932,607.69217 613.30664,607.50729 593.875,588 c -19.66951,-19.74607 -19.66951,-51.72267 0,-71.46875 9.52769,-9.56478 21.89665,-14.51375 34.375,-14.8125 z"
       id="path2987"
       inkscape:connector-curvature="0" />
    <path
       style="fill:#454545;fill-opacity:1;stroke:none"
       d="m 366.9375,347.90625 0,0.59375 0,0.5625 0,123.90625 309.75,0 0,-125.0625 -309.75,0 z m 62.28125,10.96875 c 28.35613,0 51.34375,23.09599 51.34375,51.5625 0,28.4665 -22.98762,51.53125 -51.34375,51.53125 -28.35613,0 -51.34375,-23.06475 -51.34375,-51.53125 0,-28.46651 22.98762,-51.5625 51.34375,-51.5625 z m 61.625,0.0312 25.65625,0 c 28.35613,0 51.34375,23.06476 51.34375,51.53125 0,28.46653 -22.98762,51.53125 -51.34375,51.53125 l -25.65625,0 0,-103.0625 z m 137.37495,0 c 13.5474,-0.32435 27.2238,4.71479 37.5625,15.09375 l -36.3125,36.4375 36.3125,36.4375 c -20.0508,20.12887 -52.57415,20.12887 -72.62495,0 -20.05082,-20.12884 -20.05082,-52.74615 0,-72.875 9.71211,-9.74992 22.33616,-14.78907 35.06245,-15.09375 z"
       id="rect3767"
       inkscape:connector-curvature="0" />
    <path
       inkscape:connector-curvature="0"
       id="path3797"
       d="m 87.27127,214.0403 c -28.35613,0 -51.3466,23.07994 -51.3466,51.54645 0,28.4665 22.99047,51.54646 51.3466,51.54646 28.35614,0 51.34661,-23.07996 51.34661,-51.54646 0,-28.46651 -22.99047,-51.54645 -51.34661,-51.54645 z m 61.61592,0.018 0,103.07492 25.66435,0 c 28.35613,0 51.3466,-23.07994 51.3466,-51.54647 0,-28.46649 -22.99047,-51.52845 -51.3466,-51.52845 l -25.66435,0 z m 137.39026,0 c -12.72633,0.30467 -25.36129,5.34518 -35.0734,15.09509 -20.05083,20.12886 -20.05083,52.75587 0,72.88472 20.0508,20.12886 52.56922,20.12886 72.62004,0 l -36.31002,-36.45137 36.31002,-36.43335 c -10.3387,-10.37895 -23.99926,-15.41945 -37.54664,-15.0951 z"
       style="fill:#880033;fill-opacity:1;fill-rule:nonzero;stroke:none" />
    <path
       style="font-size:medium;font-style:normal;font-variant:normal;font-weight:normal;font-stretch:normal;text-indent:0;text-align:start;text-decoration:none;line-height:normal;letter-spacing:normal;word-spacing:normal;text-transform:none;direction:ltr;block-progression:tb;writing-mode:lr-tb;text-anchor:start;baseline-shift:baseline;color:#000000;fill:#880033;fill-opacity:1;stroke:none;stroke-width:2;marker:none;visibility:visible;display:inline;overflow:visible;enable-background:accumulate;font-family:Sans;-inkscape-font-specification:Sans"
       d="m 87.28125,499.6875 c -28.89875,0 -52.34375,23.55758 -52.34375,52.5625 0,29.00491 23.445,52.53125 52.34375,52.53125 28.89876,0 52.34375,-23.52634 52.34375,-52.53125 0,-29.00492 -23.44499,-52.5625 -52.34375,-52.5625 z m 60.59375,0.0312 0,1 0,103.0625 0,1 1,0 25.6875,0 c 28.89875,0 52.34375,-23.5263 52.34375,-52.53125 0,-29.00492 -23.44542,-52.53125 -52.34375,-52.53125 l -25.6875,0 -1,0 z m 138.375,0 c -12.97432,0.31063 -25.85347,5.47119 -35.75,15.40625 -20.43214,20.51166 -20.43214,53.7696 0,74.28125 20.43232,20.51186 53.59891,20.51186 74.03125,0 L 325.25,588.6875 324.53125,588 288.9375,552.25 324.53125,516.53125 325.25,515.8125 324.53125,515.125 C 313.99597,504.5487 300.06129,499.38809 286.25,499.71875 z m -198.96875,1.96875 c 27.81352,0 50.34375,22.63442 50.34375,50.5625 0,27.92807 -22.53023,50.53125 -50.34375,50.53125 -27.81351,0 -50.34375,-22.60318 -50.34375,-50.53125 0,-27.92808 22.53024,-50.5625 50.34375,-50.5625 z m 62.59375,0.0312 24.6875,0 c 27.81393,0 50.34375,22.60317 50.34375,50.53125 0,27.92811 -22.53024,50.53125 -50.34375,50.53125 l -24.6875,0 0,-101.0625 z m 136.4375,0 c 12.97445,-0.31062 26.01056,4.44983 36.0625,14.15625 l -35.5625,35.65625 -0.71875,0.71875 0.71875,0.71875 35.5625,35.6875 C 302.65592,607.69527 271.33894,607.50834 251.90625,588 c -19.66952,-19.74607 -19.66952,-51.72267 0,-71.46875 9.52769,-9.56478 21.92791,-14.51375 34.40625,-14.8125 z"
       id="path3799"
       inkscape:connector-curvature="0" />
    <path
       style="fill:#880033;fill-opacity:1;stroke:none"
       d="m 25,347.90625 0,0.59375 0,0.5625 0,123.90625 309.75,0 0,-125.0625 -309.75,0 z M 87.28125,358.875 c 28.35614,0 51.34375,23.09599 51.34375,51.5625 0,28.4665 -22.98761,51.53125 -51.34375,51.53125 -28.35613,0 -51.34375,-23.06475 -51.34375,-51.53125 0,-28.46651 22.98762,-51.5625 51.34375,-51.5625 z m 61.59375,0.0312 25.6875,0 c 28.35613,0 51.34375,23.06476 51.34375,51.53125 0,28.46653 -22.98762,51.53125 -51.34375,51.53125 l -25.6875,0 0,-103.0625 z m 137.40625,0 C 299.82863,358.5819 313.4738,363.62104 323.8125,374 L 287.5,410.4375 323.8125,446.875 c -20.05082,20.12887 -52.54295,20.12887 -72.59375,0 -20.05083,-20.12884 -20.05083,-52.74615 0,-72.875 9.71211,-9.74992 22.33617,-14.78907 35.0625,-15.09375 z"
       id="path3801"
       inkscape:connector-curvature="0" />
    <path
       style="fill:#454545;fill-opacity:1;stroke:none"
       d="m 366.9375,626.09375 0,0.5625 0,0.59375 0,123.875 309.75,0 0,-125.03125 -309.75,0 z m 62.28125,9.46875 c 29.17006,0 52.84375,23.75713 52.84375,53.03125 0,29.27413 -23.67369,53.0625 -52.84375,53.0625 -29.17006,0 -52.84375,-23.78837 -52.84375,-53.0625 0,-29.27412 23.67369,-53.03125 52.84375,-53.03125 z m 60.125,0 1.5,0 25.65625,0 c 29.16943,0 52.84375,23.7571 52.84375,53.03125 0,29.27416 -23.67369,53.0625 -52.84375,53.0625 l -25.65625,0 -1.5,0 0,-1.5 0,-103.09375 0,-1.5 z m 138.84375,0 c 13.9432,-0.33381 28.0227,4.88754 38.6562,15.5625 l 1.0625,1.03125 -1.0625,1.0625 -35.25,35.375 35.25,35.40625 1.0313,1.0625 -1.0313,1.0625 c -20.623,20.70335 -54.12688,20.70335 -74.74995,0 -20.62278,-20.70304 -20.62278,-54.29695 0,-75 9.98874,-10.02763 22.99543,-15.2489 36.09375,-15.5625 z m -198.96875,3 c -27.5422,0 -49.84375,22.37239 -49.84375,50.03125 0,27.65887 22.30155,50.0625 49.84375,50.0625 27.5422,0 49.84375,-22.40363 49.84375,-50.0625 0,-27.65886 -22.30155,-50.03125 -49.84375,-50.03125 z m 63.125,0 0,100.09375 24.15625,0 c 27.5422,0 49.84375,-22.4036 49.84375,-50.0625 0,-27.65889 -22.30092,-50.03125 -49.84375,-50.03125 l -24.15625,0 z m 135.90625,0 c -12.35436,0.29578 -24.59577,5.18404 -34.03125,14.65625 -19.47886,19.55469 -19.47886,51.22657 0,70.78125 19.11996,19.19439 49.82725,19.48773 69.37495,1 l -35.1875,-35.34375 -1.0625,-1.0625 1.0625,-1.0625 35.2188,-35.3125 c -9.9044,-9.37543 -22.6861,-13.96003 -35.375,-13.65625 z"
       id="path3812"
       inkscape:connector-curvature="0" />
    <path
       style="fill:#880033;fill-opacity:1;stroke:none"
       d="m 25,626.09375 0,0.5625 0,0.59375 0,123.875 309.75,0 0,-125.03125 -309.75,0 z m 62.28125,9.46875 c 29.17007,0 52.84375,23.75713 52.84375,53.03125 0,29.27413 -23.67368,53.0625 -52.84375,53.0625 -29.17006,0 -52.84375,-23.78837 -52.84375,-53.0625 0,-29.27412 23.67369,-53.03125 52.84375,-53.03125 z m 60.09375,0 1.5,0 25.6875,0 c 29.16943,0 52.84375,23.7571 52.84375,53.03125 0,29.27416 -23.67369,53.0625 -52.84375,53.0625 l -25.6875,0 -1.5,0 0,-1.5 0,-103.09375 0,-1.5 z m 138.875,0 c 13.94324,-0.33381 27.99143,4.88754 38.625,15.5625 l 1.0625,1.03125 -1.0625,1.0625 -35.25,35.375 35.25,35.40625 1.0625,1.0625 -1.0625,1.0625 c -20.62309,20.70335 -54.09568,20.70335 -74.71875,0 -20.62279,-20.70304 -20.62279,-54.29695 0,-75 9.98874,-10.02763 22.99544,-15.2489 36.09375,-15.5625 z m -198.96875,3 c -27.5422,0 -49.84375,22.37239 -49.84375,50.03125 0,27.65887 22.30155,50.0625 49.84375,50.0625 27.54221,0 49.84375,-22.40363 49.84375,-50.0625 0,-27.65886 -22.30154,-50.03125 -49.84375,-50.03125 z m 63.09375,0 0,100.09375 24.1875,0 c 27.5422,0 49.84375,-22.4036 49.84375,-50.0625 0,-27.65889 -22.30092,-50.03125 -49.84375,-50.03125 l -24.1875,0 z m 135.9375,0 c -12.35435,0.29578 -24.59577,5.18404 -34.03125,14.65625 -19.47887,19.55469 -19.47887,51.22657 0,70.78125 19.11996,19.19439 49.796,19.48773 69.34375,1 l -35.1875,-35.34375 -1.03125,-1.0625 1.03125,-1.0625 35.21875,-35.3125 c -9.90437,-9.37543 -22.65489,-13.96003 -35.34375,-13.65625 z"
       id="path3816"
       inkscape:connector-curvature="0" />
  </g>
</svg>
